<?xml version="1.0" standalone="no"?>
<!DOCTYPE svg PUBLIC "-//W3C//DTD SVG 20010904//EN"
 "http://www.w3.org/TR/2001/REC-SVG-20010904/DTD/svg10.dtd">
<svg version="1.0" xmlns="http://www.w3.org/2000/svg"
 width="320.000000pt" height="320.000000pt" viewBox="0 0 320.000000 320.000000"
 preserveAspectRatio="xMidYMid meet">

<g transform="translate(0.000000,320.000000) scale(0.100000,-0.100000)"
fill="#000000" stroke="none">
<path d="M1332 3189 c-71 -21 -132 -112 -132 -194 1 -65 61 -151 123 -174 l28
-11 -74 -73 c-339 -339 -627 -954 -627 -1337 0 -258 96 -424 295 -508 l50 -21
3 -135 3 -136 599 0 600 0 0 134 0 134 80 38 c126 59 204 150 246 289 27 88
25 317 -4 441 -22 94 -72 248 -113 346 l-24 58 -320 -320 c-207 -206 -328
-320 -341 -320 -25 0 -124 99 -124 125 0 12 129 149 344 365 l345 345 -61 100
c-83 137 -212 308 -302 398 l-74 75 29 12 c39 17 94 79 109 125 26 80 -9 174
-83 223 l-40 27 -251 2 c-141 1 -265 -2 -284 -8z"/>
<path d="M805 382 c-97 -34 -162 -101 -190 -195 -27 -90 -13 -151 40 -175 19
-9 254 -12 946 -12 1010 0 963 -3 989 60 27 66 -18 200 -87 261 -21 17 -57 41
-82 53 -45 21 -57 21 -806 23 -701 2 -764 1 -810 -15z"/>
</g>
</svg>
