<?xml version="1.0" standalone="no"?>
<!DOCTYPE svg PUBLIC "-//W3C//DTD SVG 20010904//EN"
 "http://www.w3.org/TR/2001/REC-SVG-20010904/DTD/svg10.dtd">
<svg version="1.0" xmlns="http://www.w3.org/2000/svg"
 width="448.000000pt" height="448.000000pt" viewBox="0 0 448.000000 448.000000"
 preserveAspectRatio="xMidYMid meet">

<g transform="translate(0.000000,448.000000) scale(0.100000,-0.100000)"
fill="#000000" stroke="none">
<path d="M1982 4457 c-21 -22 -22 -32 -22 -210 l0 -187 -188 0 c-253 0 -232
26 -232 -281 0 -304 -21 -279 233 -279 l187 0 0 -210 0 -210 -737 -2 -738 -3
-50 -27 c-59 -31 -94 -67 -126 -128 -19 -36 -23 -60 -23 -120 1 -72 16 -119
322 -1014 177 -516 322 -940 322 -942 0 -2 590 -4 1310 -4 721 0 1310 2 1310
4 0 2 145 426 322 942 306 895 321 942 322 1014 0 63 -4 83 -26 126 -15 29
-46 68 -70 88 -78 67 -62 66 -860 66 l-718 0 0 210 0 210 188 0 c253 0 232
-26 232 281 0 304 21 279 -233 279 l-187 0 0 188 c0 253 26 232 -281 232 -233
0 -236 0 -257 -23z"/>
<path d="M632 540 c-65 -40 -72 -64 -72 -260 0 -196 7 -220 72 -260 33 -20 54
-20 1603 -20 1475 0 1572 1 1604 18 71 35 76 52 79 255 2 168 1 185 -18 215
-11 18 -34 41 -52 52 -33 20 -54 20 -1608 20 -1554 0 -1575 0 -1608 -20z"/>
</g>
</svg>
