<?xml version="1.0" standalone="no"?>
<!DOCTYPE svg PUBLIC "-//W3C//DTD SVG 20010904//EN"
 "http://www.w3.org/TR/2001/REC-SVG-20010904/DTD/svg10.dtd">
<svg version="1.0" xmlns="http://www.w3.org/2000/svg"
 width="384.000000pt" height="384.000000pt" viewBox="0 0 384.000000 384.000000"
 preserveAspectRatio="xMidYMid meet">

<g transform="translate(0.000000,384.000000) scale(0.100000,-0.100000)"
fill="#000000" stroke="none">
<path d="M510 3571 c-20 -19 -30 -40 -30 -59 0 -16 26 -83 59 -148 l58 -119
-48 -55 c-27 -30 -54 -71 -60 -90 -7 -23 -9 -225 -7 -595 l3 -560 28 -48 c36
-61 67 -80 272 -174 154 -69 176 -76 235 -77 86 -1 212 48 269 106 41 40 53
70 116 280 15 49 38 102 52 119 14 17 70 52 125 80 l99 50 -3 -233 -3 -234
-32 -65 c-52 -105 -89 -132 -393 -284 -265 -133 -275 -139 -349 -214 -124
-123 -181 -263 -181 -443 l0 -88 1201 0 1200 0 -4 813 c-3 793 -4 814 -25 909
-132 582 -543 995 -1125 1130 -88 21 -121 22 -760 25 l-667 4 -30 -30z m430
-712 c44 -25 80 -83 80 -129 0 -75 -76 -150 -151 -150 -72 0 -149 77 -149 149
0 49 35 108 78 130 48 26 95 26 142 0z"/>
<path d="M754 471 c-141 -34 -257 -169 -270 -314 -5 -54 -3 -66 18 -97 13 -19
35 -40 48 -47 20 -10 309 -12 1382 -10 l1358 2 32 33 c31 30 33 37 33 100 -1
147 -107 282 -255 326 -48 14 -180 16 -1184 15 -622 -1 -1145 -4 -1162 -8z"/>
</g>
</svg>
