<?xml version="1.0" standalone="no"?>
<!DOCTYPE svg PUBLIC "-//W3C//DTD SVG 20010904//EN"
 "http://www.w3.org/TR/2001/REC-SVG-20010904/DTD/svg10.dtd">
<svg version="1.0" xmlns="http://www.w3.org/2000/svg"
 width="320.000000pt" height="320.000000pt" viewBox="0 0 320.000000 320.000000"
 preserveAspectRatio="xMidYMid meet">

<g transform="translate(0.000000,320.000000) scale(0.100000,-0.100000)"
fill="#000000" stroke="none">
<path d="M1452 2985 c-89 -20 -217 -85 -284 -145 -168 -150 -250 -401 -204
-620 30 -144 120 -288 239 -381 l49 -39 -87 0 c-96 0 -134 -14 -153 -55 -7
-16 -12 -75 -12 -150 0 -114 2 -126 23 -150 23 -28 76 -44 141 -45 l39 0 -6
-157 c-10 -246 -53 -456 -123 -595 l-24 -48 549 0 550 0 -34 72 c-67 147 -102
324 -112 571 l-6 157 62 0 c71 0 112 17 129 55 7 15 12 74 12 146 0 178 -17
199 -166 199 l-86 0 49 39 c157 124 253 318 253 511 0 239 -146 474 -360 579
-139 68 -292 87 -438 56z"/>
<path d="M809 386 c-119 -42 -196 -139 -206 -257 -6 -56 -4 -60 30 -94 l35
-35 926 0 c1017 0 970 -3 996 60 27 66 -18 200 -87 261 -21 17 -57 41 -82 53
-45 21 -57 21 -811 23 -609 2 -772 0 -801 -11z"/>
</g>
</svg>
