<?xml version="1.0" standalone="no"?>
<!DOCTYPE svg PUBLIC "-//W3C//DTD SVG 20010904//EN"
 "http://www.w3.org/TR/2001/REC-SVG-20010904/DTD/svg10.dtd">
<svg version="1.0" xmlns="http://www.w3.org/2000/svg"
 width="512.000000pt" height="512.000000pt" viewBox="0 0 512.000000 512.000000"
 preserveAspectRatio="xMidYMid meet">

<g transform="translate(0.000000,512.000000) scale(0.100000,-0.100000)"
fill="#000000" stroke="none">
<path d="M2445 5108 c-27 -5 -88 -27 -135 -50 -155 -75 -270 -219 -305 -385
-18 -86 -18 -140 0 -226 57 -271 323 -467 601 -444 132 12 257 70 350 164 217
221 216 567 -1 786 -132 134 -320 191 -510 155z"/>
<path d="M1510 3822 c-47 -23 -80 -75 -80 -126 -1 -115 -68 -272 -155 -362
-112 -114 -288 -161 -450 -118 -84 21 -139 56 -215 134 -136 140 -164 143
-369 28 -80 -45 -158 -90 -174 -101 -41 -28 -70 -92 -65 -141 3 -27 180 -402
521 -1106 l517 -1065 1518 -3 1519 -2 516 1065 c560 1154 540 1108 501 1191
-20 42 -30 49 -219 158 -211 121 -234 120 -383 -32 -113 -115 -241 -158 -398
-135 -226 33 -382 208 -413 465 -10 85 -33 128 -81 153 -37 19 -458 22 -493 4
-43 -23 -67 -53 -83 -108 -62 -216 -254 -361 -476 -361 -209 0 -410 157 -459
356 -16 67 -25 82 -62 104 -29 18 -52 20 -257 20 -194 0 -230 -2 -260 -18z"/>
<path d="M991 624 c-180 -48 -323 -204 -353 -386 -13 -76 0 -132 39 -179 53
-63 -75 -59 1883 -59 1957 0 1830 -4 1883 59 34 41 42 88 29 168 -33 198 -188
362 -380 402 -37 8 -493 11 -1550 10 -1274 0 -1505 -2 -1551 -15z"/>
</g>
</svg>
