<?xml version="1.0" standalone="no"?>
<!DOCTYPE svg PUBLIC "-//W3C//DTD SVG 20010904//EN"
 "http://www.w3.org/TR/2001/REC-SVG-20010904/DTD/svg10.dtd">
<svg version="1.0" xmlns="http://www.w3.org/2000/svg"
 width="384.000000pt" height="384.000000pt" viewBox="0 0 384.000000 384.000000"
 preserveAspectRatio="xMidYMid meet">

<g transform="translate(0.000000,384.000000) scale(0.100000,-0.100000)"
fill="#000000" stroke="none">
<path d="M555 3590 c-11 -4 -31 -20 -45 -35 l-25 -27 -3 -684 -2 -684 240
-120 240 -120 0 -128 c-1 -312 -45 -802 -96 -1044 l-6 -28 1062 0 1062 0 -6
28 c-51 242 -95 732 -96 1044 l0 128 240 120 240 120 -2 685 -3 685 -33 32
-32 33 -260 0 -260 0 -32 -33 -33 -32 -3 -205 -3 -205 -179 0 -179 0 -3 205
-3 205 -33 32 -32 33 -350 0 -350 0 -32 -33 -33 -32 -3 -205 -3 -205 -180 0
-179 0 0 196 c0 293 10 284 -332 283 -128 0 -242 -4 -253 -9z m1439 -1442 c55
-16 138 -99 154 -154 8 -28 12 -126 12 -298 l0 -256 -240 0 -240 0 0 256 c0
172 4 270 12 298 15 51 99 137 148 153 48 15 105 15 154 1z"/>
<path d="M754 471 c-141 -34 -257 -169 -270 -314 -5 -54 -3 -66 18 -97 13 -19
35 -40 48 -47 20 -10 309 -12 1382 -10 l1358 2 32 33 c31 30 33 37 33 100 -1
147 -107 282 -255 326 -48 14 -180 16 -1184 15 -622 -1 -1145 -4 -1162 -8z"/>
</g>
</svg>
