<?xml version="1.0" standalone="no"?>
<!DOCTYPE svg PUBLIC "-//W3C//DTD SVG 20010904//EN"
 "http://www.w3.org/TR/2001/REC-SVG-20010904/DTD/svg10.dtd">
<svg version="1.0" xmlns="http://www.w3.org/2000/svg"
 width="320.000000pt" height="320.000000pt" viewBox="0 0 320.000000 320.000000"
 preserveAspectRatio="xMidYMid meet">

<g transform="translate(0.000000,320.000000) scale(0.100000,-0.100000)"
fill="#000000" stroke="none">
<path d="M1332 3189 c-71 -21 -132 -112 -132 -194 1 -65 61 -151 123 -174 l29
-11 -59 -58 c-281 -277 -586 -842 -670 -1242 -21 -103 -24 -301 -4 -380 42
-172 158 -323 304 -395 l77 -38 0 -99 0 -98 150 0 150 0 0 209 0 210 -112 36
c-61 20 -124 43 -139 50 -44 23 -91 76 -118 135 -24 51 -26 65 -25 180 1 146
26 252 100 434 116 286 367 666 521 792 59 47 78 52 122 29 66 -34 227 -239
356 -453 l38 -64 -216 -216 c-216 -217 -236 -244 -223 -295 7 -31 111 -135
142 -143 51 -13 78 7 256 184 98 97 179 174 182 171 9 -9 77 -216 93 -283 11
-43 18 -113 18 -176 0 -92 -3 -112 -26 -160 -28 -60 -74 -112 -121 -136 -17
-9 -80 -31 -139 -50 l-109 -35 0 -209 0 -210 150 0 150 0 0 98 0 97 78 39
c146 75 262 225 303 396 22 89 18 278 -9 398 -90 403 -382 942 -663 1223 l-57
57 29 12 c39 17 94 79 109 125 26 80 -9 174 -83 223 l-40 27 -251 2 c-141 1
-265 -2 -284 -8z"/>
<path d="M682 283 c-51 -25 -77 -69 -77 -130 0 -58 20 -93 75 -130 l33 -23
880 0 c860 0 882 0 922 20 47 23 85 80 85 129 0 51 -35 108 -80 131 -38 20
-57 20 -922 20 -793 0 -886 -2 -916 -17z"/>
</g>
</svg>
