<?xml version="1.0" standalone="no"?>
<!DOCTYPE svg PUBLIC "-//W3C//DTD SVG 20010904//EN"
 "http://www.w3.org/TR/2001/REC-SVG-20010904/DTD/svg10.dtd">
<svg version="1.0" xmlns="http://www.w3.org/2000/svg"
 width="448.000000pt" height="448.000000pt" viewBox="0 0 448.000000 448.000000"
 preserveAspectRatio="xMidYMid meet">

<g transform="translate(0.000000,448.000000) scale(0.100000,-0.100000)"
fill="#000000" stroke="none">
<path d="M2145 4461 c-22 -10 -50 -29 -62 -42 -45 -50 -53 -88 -53 -264 l0
-165 -162 0 c-137 0 -169 -3 -203 -19 -132 -61 -166 -229 -67 -335 53 -56 91
-66 265 -66 l157 0 0 -245 0 -245 -653 0 c-554 0 -662 -2 -712 -15 -233 -60
-389 -272 -372 -505 5 -63 52 -217 300 -965 l294 -890 223 -3 c176 -2 221 0
217 10 -25 67 -617 1869 -617 1880 0 9 9 27 21 42 l20 26 1495 0 1495 0 24
-25 c14 -13 25 -32 25 -41 0 -10 -140 -437 -310 -950 -170 -513 -310 -935
-310 -938 0 -3 99 -6 220 -6 l219 0 165 502 c90 277 224 685 297 908 84 257
134 425 137 461 17 222 -161 451 -386 498 -35 7 -270 11 -707 11 l-655 0 0
245 0 245 158 0 c178 0 214 10 269 73 82 94 65 240 -36 312 l-43 30 -169 3
-169 4 0 139 c0 179 -10 220 -69 279 -70 69 -164 89 -246 51z"/>
<path d="M700 409 c-46 -18 -92 -61 -111 -103 -48 -106 1 -240 106 -287 38
-18 106 -19 1543 -19 1632 0 1540 -3 1600 53 93 86 78 263 -29 334 l-43 28
-1520 2 c-986 1 -1530 -2 -1546 -8z"/>
</g>
</svg>
