<?xml version="1.0" standalone="no"?>
<!DOCTYPE svg PUBLIC "-//W3C//DTD SVG 20010904//EN"
 "http://www.w3.org/TR/2001/REC-SVG-20010904/DTD/svg10.dtd">
<svg version="1.0" xmlns="http://www.w3.org/2000/svg"
 width="384.000000pt" height="384.000000pt" viewBox="0 0 384.000000 384.000000"
 preserveAspectRatio="xMidYMid meet">

<g transform="translate(0.000000,384.000000) scale(0.100000,-0.100000)"
fill="#000000" stroke="none">
<path d="M800 3584 c-197 -53 -333 -245 -317 -449 3 -38 12 -89 21 -112 14
-39 14 -47 -2 -85 -15 -38 -17 -103 -20 -543 -3 -431 -1 -509 13 -572 24 -109
68 -187 150 -269 58 -59 88 -80 172 -120 l101 -48 -28 -36 c-49 -62 -107 -181
-136 -275 -24 -80 -27 -111 -32 -283 l-4 -192 181 0 181 0 0 139 c0 169 10
225 56 319 54 111 110 160 339 297 323 193 325 196 325 560 l0 243 -71 -40
c-38 -23 -79 -52 -90 -66 -10 -14 -37 -83 -59 -154 -29 -89 -50 -139 -70 -162
-39 -43 -140 -89 -211 -94 -53 -4 -69 1 -210 63 -165 72 -201 97 -230 160 -17
37 -19 73 -19 493 0 499 -1 490 63 551 l35 33 -49 101 c-27 55 -49 111 -49
124 0 13 11 35 25 48 l24 25 448 0 c246 0 480 -5 518 -10 514 -73 918 -467
1000 -975 12 -73 15 -234 15 -872 l0 -783 180 0 180 0 0 796 c0 863 -2 905
-56 1092 -77 266 -200 472 -403 672 -239 237 -533 381 -868 425 -157 21 -1024
20 -1103 -1z"/>
<path d="M1157 2738 c-39 -23 -77 -86 -77 -128 0 -73 78 -150 151 -150 47 0
108 38 130 80 38 71 13 157 -57 197 -49 29 -98 29 -147 1z"/>
<path d="M585 343 c-64 -33 -105 -95 -105 -155 1 -68 60 -153 123 -177 20 -8
432 -11 1321 -11 l1292 0 44 23 c98 49 128 166 67 258 -12 19 -42 44 -67 56
l-44 23 -1301 0 c-1167 -1 -1303 -2 -1330 -17z"/>
</g>
</svg>
