<?xml version="1.0" standalone="no"?>
<!DOCTYPE svg PUBLIC "-//W3C//DTD SVG 20010904//EN"
 "http://www.w3.org/TR/2001/REC-SVG-20010904/DTD/svg10.dtd">
<svg version="1.0" xmlns="http://www.w3.org/2000/svg"
 width="320.000000pt" height="320.000000pt" viewBox="0 0 320.000000 320.000000"
 preserveAspectRatio="xMidYMid meet">

<g transform="translate(0.000000,320.000000) scale(0.100000,-0.100000)"
fill="#000000" stroke="none">
<path d="M1449 2986 c-363 -76 -623 -416 -596 -779 12 -159 65 -293 166 -420
l59 -75 -89 -4 c-81 -4 -92 -7 -126 -34 -76 -62 -82 -157 -13 -226 l38 -38
107 0 108 0 -6 -228 c-3 -138 -12 -264 -22 -322 -17 -103 -65 -256 -96 -308
-10 -18 -19 -35 -19 -38 0 -2 75 -3 167 -2 l166 3 23 68 c56 165 84 385 84
655 l0 162 199 0 198 0 6 -232 c7 -285 37 -488 94 -629 l15 -39 164 0 c90 0
164 2 164 4 0 2 -15 36 -34 77 -73 160 -96 294 -103 596 l-6 231 111 4 c107 3
112 4 142 33 58 56 64 145 14 205 -38 45 -60 53 -156 59 l-87 6 50 60 c65 79
133 215 154 310 26 115 17 293 -19 400 -84 246 -270 425 -511 490 -83 23 -263
28 -346 11z m298 -307 c166 -57 285 -212 300 -389 15 -183 -84 -353 -255 -438
-68 -33 -84 -37 -171 -40 -115 -4 -188 15 -275 73 -231 153 -261 491 -62 690
117 118 303 159 463 104z"/>
<path d="M704 299 c-67 -19 -113 -100 -100 -173 8 -42 45 -89 83 -105 21 -8
268 -11 925 -9 l897 3 30 29 c17 16 36 44 42 63 25 76 -24 172 -99 193 -47 13
-1734 12 -1778 -1z"/>
</g>
</svg>
