<?xml version="1.0" standalone="no"?>
<!DOCTYPE svg PUBLIC "-//W3C//DTD SVG 20010904//EN"
 "http://www.w3.org/TR/2001/REC-SVG-20010904/DTD/svg10.dtd">
<svg version="1.0" xmlns="http://www.w3.org/2000/svg"
 width="512.000000pt" height="512.000000pt" viewBox="0 0 512.000000 512.000000"
 preserveAspectRatio="xMidYMid meet">

<g transform="translate(0.000000,512.000000) scale(0.100000,-0.100000)"
fill="#000000" stroke="none">
<path d="M2445 5108 c-27 -5 -88 -27 -135 -50 -155 -75 -270 -219 -305 -385
-18 -86 -18 -140 0 -226 57 -271 323 -467 601 -444 132 12 257 70 350 164 217
221 216 567 -1 786 -132 134 -320 191 -510 155z"/>
<path d="M1510 3822 c-47 -23 -80 -75 -80 -126 0 -67 -28 -164 -68 -240 -125
-238 -391 -322 -635 -200 -32 16 -83 59 -135 112 l-83 86 -57 3 c-56 4 -60 2
-232 -95 -159 -90 -177 -103 -198 -143 -17 -32 -22 -55 -19 -84 3 -26 197
-445 546 -1180 298 -627 546 -1143 550 -1148 4 -4 125 -6 268 -5 l261 3 -463
970 c-254 534 -461 972 -459 973 1 2 27 -1 56 -7 320 -69 690 52 901 294 41
46 132 176 139 196 2 5 44 -31 93 -79 191 -188 442 -283 710 -268 245 13 438
97 619 267 l91 87 26 -47 c115 -206 352 -385 584 -443 106 -26 331 -31 428 -9
32 7 60 11 61 9 1 -1 -205 -439 -460 -973 l-462 -970 261 -3 c143 -1 264 1
268 5 4 5 251 520 548 1146 586 1231 564 1180 525 1263 -20 41 -52 64 -234
167 -193 109 -220 107 -347 -21 -92 -93 -174 -138 -282 -155 -230 -35 -451
107 -524 338 -9 28 -21 85 -26 127 -10 85 -33 128 -81 153 -37 19 -458 22
-493 4 -43 -23 -67 -53 -83 -108 -62 -216 -254 -361 -476 -361 -209 0 -410
157 -459 356 -16 67 -25 82 -62 104 -29 18 -52 20 -257 20 -194 0 -230 -2
-260 -18z"/>
<path d="M794 464 c-83 -29 -153 -126 -154 -210 0 -85 53 -177 128 -221 l47
-28 1725 -3 c1338 -2 1735 0 1770 10 59 16 144 97 159 153 18 65 13 108 -19
172 -31 63 -74 103 -135 129 -52 21 -3459 20 -3521 -2z"/>
</g>
</svg>
