<?xml version="1.0" standalone="no"?>
<!DOCTYPE svg PUBLIC "-//W3C//DTD SVG 20010904//EN"
 "http://www.w3.org/TR/2001/REC-SVG-20010904/DTD/svg10.dtd">
<svg version="1.0" xmlns="http://www.w3.org/2000/svg"
 width="384.000000pt" height="384.000000pt" viewBox="0 0 384.000000 384.000000"
 preserveAspectRatio="xMidYMid meet">

<g transform="translate(0.000000,384.000000) scale(0.100000,-0.100000)"
fill="#000000" stroke="none">
<path d="M677 3586 c-90 -33 -163 -108 -187 -196 -6 -21 -10 -260 -10 -596 0
-626 -1 -616 68 -687 20 -21 95 -89 166 -150 l129 -112 -6 -315 c-3 -173 -11
-367 -17 -430 -12 -123 -57 -454 -66 -482 -5 -17 8 -18 180 -18 102 0 186 2
186 4 0 2 9 64 20 138 42 282 52 433 56 878 l5 435 -180 155 -180 155 -1 438
0 437 240 0 240 0 0 -180 0 -180 180 0 180 0 0 180 0 180 240 0 240 0 0 -180
0 -180 180 0 180 0 0 180 0 180 240 0 240 0 0 -437 0 -438 -180 -155 -180
-155 0 -328 c0 -439 23 -785 71 -1064 l11 -63 185 0 c171 0 184 1 179 18 -9
28 -54 359 -66 482 -6 63 -14 257 -17 430 l-5 315 133 115 c73 63 147 130 165
149 65 66 65 65 62 707 l-3 579 -30 54 c-35 64 -99 116 -168 136 -72 21 -2420
22 -2480 1z"/>
<path d="M1840 2147 c-49 -16 -133 -102 -148 -153 -8 -28 -12 -126 -12 -298
l0 -256 240 0 240 0 0 256 c0 172 -4 270 -12 298 -16 55 -99 138 -154 154 -49
14 -106 14 -154 -1z"/>
<path d="M585 343 c-64 -33 -105 -95 -105 -155 1 -68 60 -153 123 -177 20 -8
432 -11 1321 -11 l1292 0 44 23 c98 49 128 166 67 258 -12 19 -42 44 -67 56
l-44 23 -1301 0 c-1167 -1 -1303 -2 -1330 -17z"/>
</g>
</svg>
